<?xml version="1.0" encoding="utf-8"?>
<!-- Generator: Adobe Illustrator 27.0.0, SVG Export Plug-In . SVG Version: 6.00 Build 0)  -->
<svg version="1.1" xmlns="http://www.w3.org/2000/svg" xmlns:xlink="http://www.w3.org/1999/xlink" x="0px" y="0px"
	 viewBox="0 0 595.28 591.43" style="enable-background:new 0 0 595.28 591.43;" xml:space="preserve">
<style type="text/css">
	.st0{fill:#EDDB80;}
	.st1{fill:#EDDB80;stroke:#000000;stroke-width:29;stroke-miterlimit:10;}
	.st2{fill:#FFFFFF;stroke:#000000;stroke-width:29;stroke-miterlimit:10;}
	.st3{fill:#FFFFFF;}
	.st4{fill:none;stroke:#000000;stroke-width:3;stroke-miterlimit:10;}
	.st5{fill:none;stroke:#020202;stroke-width:3;stroke-miterlimit:10;}
	.st6{fill:none;stroke:#000000;stroke-width:29;stroke-miterlimit:10;}
</style>
<g id="Capa_1">
	<g id="Capa_3">
	</g>
	<g id="Capa_4">
	</g>
</g>
<g id="Capa_2">
</g>
<g id="Capa_5">
	<g>
		<circle class="st1" cx="297.64" cy="311.14" r="244.42"/>
		<path d="M422.89,176.17l-71.25,168.46h26.72c18.21,0,27.31,6.2,27.31,18.61c0,8.36-3.2,14.91-9.6,19.66
			c-6.4,4.75-15.34,7.12-26.82,7.12h-37.01l-14.45,34.95c-16.1,38.62-32.85,65.87-50.27,81.76c-17.42,15.89-39.12,23.83-65.12,23.83
			c-24.54,0-44.99-7.85-61.35-23.55c-16.36-15.7-24.54-35.26-24.54-58.69c0-17.73,4.85-34,14.55-48.81
			c9.7-14.81,23.39-26.97,41.07-36.47c22.56-12.03,53.76-18.04,93.62-18.04l31.47-0.38l6.73-15.76c-7,3.29-14.72,4.94-23.16,4.94
			c-18.74,0-34.27-5.51-46.61-16.52c-12.34-11.02-18.51-24.88-18.51-41.59c0-8.74,3.03-21.4,9.11-37.98l4.35-11.21l4.16-11.21
			c3.03-7.98,4.55-14.62,4.55-19.94c0-6.08-2.77-11.27-8.31-15.57c-5.54-4.3-12.21-6.46-19.99-6.46c-12.67,0-24.24,5.57-34.73,16.71
			c-10.49,11.14-15.73,23.36-15.73,36.66c0,7.6,1.78,13.58,5.34,17.95c3.56,4.37,9.9,8.2,19,11.49c9.5,3.55,14.25,9.37,14.25,17.47
			c0,7.22-2.84,13.23-8.51,18.04c-5.67,4.81-12.74,7.22-21.18,7.22c-16.76,0-31.04-6.71-42.85-20.13
			c-11.81-13.42-17.71-29.63-17.71-48.62c0-27.6,10.85-51.69,32.56-72.27c21.7-20.57,47.07-30.86,76.1-30.86
			c21.77,0,39.78,6.27,54.03,18.8c14.25,12.54,21.37,28.36,21.37,47.48c0,9.12-1.65,17.98-4.95,26.59l-7.72,20.13
			c-4.88,12.54-7.32,21.46-7.32,26.78c0,5.95,2.31,11.02,6.93,15.19c4.62,4.18,10.16,6.27,16.62,6.27c9.63,0,17.74-3.23,24.34-9.69
			c6.6-6.46,13.33-17.73,20.19-33.81l38.2-90.4c3.69-8.74,8.21-14.84,13.56-18.33c5.34-3.48,12.96-5.22,22.86-5.22h46.71
			c18.21,0,27.31,5.95,27.31,17.85c0,8.74-3.2,15.51-9.6,20.32c-6.4,4.81-15.41,7.22-27.01,7.22H422.89z M278.01,390.03
			c-27.71,0-48.95,2.53-63.73,7.6c-13.85,4.68-24.71,11.43-32.56,20.23c-7.85,8.8-11.77,18.52-11.77,29.15
			c0,9.88,3.4,18.23,10.19,25.07c6.8,6.84,15.07,10.26,24.84,10.26c12,0,22.86-5.13,32.56-15.38c9.7-10.26,19.36-26.85,28.99-49.76
			L278.01,390.03z"/>
	</g>
</g>
<g id="Capa_6">
</g>
<g id="Capa_7">
</g>
<g id="Capa_8">
</g>
<g id="Capa_9">
</g>
<g id="Capa_10">
</g>
</svg>
